# xmcd CD database file
#
# Track frame offsets:
#	150
#	20360
#	47220
#
# Disc length: 898 seconds
#
# Revision: 0
# Processed by: cddbd v1.5PL3 Copyright (c) Steve Scherf et al.
# Submitted via: CDex 1.50
#
DISCID=1d038003
DTITLE=森口博子 - もっとうまく好きと言えたなら
DYEAR=1995
DGENRE=JPop
TTITLE0=もっとうまく好きと言えたなら
TTITLE1=恋人になろう
TTITLE2=もっとうまく好きと言えたなら (ｶﾗｵｹ)
EXTD=YEAR: 1995/03/03
EXTT0=
EXTT1=
EXTT2=
PLAYORDER=
